# Blender v2.92.0 OBJ File: 'leaf.blend'
# www.blender.org
mtllib stem.mtl
o Cylinder
v -0.078815 0.070351 -0.004622
v -0.000000 -0.031096 -0.001747
v -0.000000 0.031096 -0.001747
v 0.078800 0.070350 -0.004885
v 0.000000 -0.031096 0.001747
v 0.000000 0.031096 0.001747
v 0.000000 0.226180 0.000000
v -0.003121 -0.031096 0.000000
v -0.003121 0.031096 0.002777
v -0.002918 0.040836 0.002777
v -0.001759 0.096494 0.000000
v -0.001634 0.102477 0.000000
v -0.000628 0.150757 0.000000
v -0.000561 0.154853 0.000000
v -0.059910 0.130849 -0.001688
v -0.037687 0.179003 0.000000
v 0.003121 -0.031096 -0.000000
v 0.003121 0.031096 0.002777
v 0.002918 0.040836 0.002777
v 0.001759 0.096494 -0.000000
v 0.001634 0.102477 -0.000000
v 0.000628 0.150757 -0.000000
v 0.000561 0.154853 -0.000000
v 0.059910 0.130849 -0.001688
v 0.037687 0.179003 -0.000000
v 0.002918 0.040836 0.002777
v 0.003121 0.031096 0.002777
v -0.002918 0.040836 0.002777
v -0.003121 0.031096 0.002777
v -0.001759 0.096494 0.000000
v -0.001634 0.102477 0.000000
v -0.000628 0.150757 0.000000
v -0.000561 0.154853 0.000000
v 0.001759 0.096494 -0.000000
v 0.001634 0.102477 -0.000000
v 0.000628 0.150757 -0.000000
v 0.000561 0.154853 -0.000000
vt 0.750000 0.500000
vt 0.750000 1.000000
vt 0.500000 1.000000
vt 0.500000 0.500000
vt 0.750000 0.500000
vt 0.750000 1.000000
vt 0.500000 1.000000
vt 0.500000 1.000000
vt 0.500000 0.500000
vt 0.500000 1.000000
vt 0.500000 1.000000
vt 0.500000 1.000000
vt 0.750000 1.000000
vt 0.705049 1.000000
vt 0.699732 1.000000
vt 0.619145 1.000000
vt 0.609159 1.000000
vt 0.516256 1.000000
vt 0.500000 1.000000
vt 0.500000 1.000000
vt 0.500000 1.000000
vt 0.500000 1.000000
vt 0.500000 1.000000
vt 0.583333 1.000000
vt 0.666667 1.000000
vt 0.516256 1.000000
vt 0.609159 1.000000
vt 0.619145 1.000000
vt 0.699732 1.000000
vt 0.705049 1.000000
vt 0.500000 1.000000
vt 0.500000 1.000000
vt 0.500000 1.000000
vt 0.500000 1.000000
vt 0.583333 1.000000
vt 0.666667 1.000000
vt 0.500000 1.000000
vt 0.500000 1.000000
vt 0.500000 1.000000
vt 0.500000 1.000000
vt 0.609159 1.000000
vt 0.619145 1.000000
vt 0.699732 1.000000
vt 0.705049 1.000000
vt 0.609159 1.000000
vt 0.619145 1.000000
vt 0.699732 1.000000
vt 0.705049 1.000000
vn 0.7086 0.0157 -0.7054
vn 0.1141 -0.0222 0.9932
vn 0.0997 0.0021 0.9950
vn -0.7086 0.0157 -0.7054
vn -0.1141 -0.0222 0.9932
vn -0.0963 0.0020 0.9954
vn -0.2587 0.0191 0.9658
vn -0.7440 0.0015 -0.6682
vn 0.0287 -0.0006 -0.9996
vn -0.0000 0.0000 -1.0000
vn 0.2587 0.0191 0.9658
vn 0.7440 0.0015 -0.6682
vn -0.0287 -0.0006 -0.9996
vn -0.0997 -0.0021 -0.9950
vn 0.0963 -0.0020 -0.9954
vn -0.0287 0.0006 0.9996
vn 0.0000 0.0000 1.0000
vn 0.0287 0.0006 0.9996
usemtl None
s off
f 2/1/1 3/2/1 18/3/1 17/4/1
f 5/5/2 17/4/2 18/3/2 6/6/2
f 19/7/3 18/3/3 4/8/3
f 2/1/4 8/9/4 9/10/4 3/2/4
f 5/5/5 6/6/5 9/10/5 8/9/5
f 10/11/6 1/12/6 9/10/6
f 6/6/7 7/13/7 14/14/7 13/15/7 12/16/7 11/17/7 10/18/7 9/10/7
f 9/10/8 10/11/8 11/19/8 12/20/8 13/21/8 14/22/8 7/23/8 3/2/8
f 11/17/9 15/24/9 12/16/9
f 13/15/10 16/25/10 14/14/10
f 6/6/11 18/3/11 19/26/11 20/27/11 21/28/11 22/29/11 23/30/11 7/13/11
f 18/3/12 3/2/12 7/23/12 23/31/12 22/32/12 21/33/12 20/34/12 19/7/12
f 20/27/13 21/28/13 24/35/13
f 22/29/10 23/30/10 25/36/10
f 26/37/14 4/8/14 27/38/14
f 28/39/15 29/40/15 1/12/15
f 30/41/16 31/42/16 15/24/16
f 32/43/17 33/44/17 16/25/17
f 34/45/18 24/35/18 35/46/18
f 36/47/17 25/36/17 37/48/17
